<svg width="376" height="686" viewBox="0 0 376 686" fill="none" xmlns="http://www.w3.org/2000/svg">
<g style="mix-blend-mode:hard-light" opacity="0.7">
<g opacity="0.1">
<path d="M472.3 232.112C487.571 246.124 496.633 265.591 497.556 286.316L514.17 668.175L343.336 511.605C342.623 495.824 339.459 423.276 336.179 348.059C333.669 290.504 331.092 231.386 329.491 194.941C328.652 175.055 311.787 159.784 291.901 160.623L25.1618 172.287L169.229 15.0455C177.536 5.98355 188.78 1.11697 200.191 0.613528C211.602 0.110088 223.265 3.9698 232.327 12.2766L472.3 232.112Z" fill="url(#paint0_linear_6141_50511)"/>
<path d="M-10.8337 490.965L-24.6783 174.385L-195.512 17.8154L-178.899 399.758C-177.976 420.483 -168.914 439.95 -153.643 453.962L86.2463 673.797C95.3921 682.104 106.971 685.964 118.383 685.461C129.794 684.957 141.037 680.09 149.344 671.029L293.496 513.788L26.7565 525.451C6.87061 526.29 -9.99461 510.851 -10.8337 490.965Z" fill="url(#paint1_linear_6141_50511)"/>
</g>
<g opacity="0.15">
<path d="M382.268 156.936C399.049 163.732 412.391 176.989 419.439 193.687L549.326 501.876L361.543 425.437C352.062 402.866 282.503 237.738 253.891 169.857C247.095 153.831 228.635 146.363 212.609 153.16L-2.61163 243.779L67.7861 70.9313C71.8136 60.9464 79.533 53.5626 88.7627 49.7029C97.9924 45.8432 108.649 45.5076 118.633 49.5351L382.268 156.936Z" fill="url(#paint2_linear_6141_50511)"/>
<path d="M64.682 516.226L-42.8863 260.731L-230.585 184.208L-100.782 492.481C-93.7337 509.178 -80.3926 522.435 -63.6112 529.232L200.023 636.632C210.008 640.744 220.664 640.324 229.894 636.465C239.04 632.605 246.843 625.221 250.871 615.236L321.269 442.472L106.048 533.092C89.9379 539.804 71.4785 532.253 64.682 516.226Z" fill="url(#paint3_linear_6141_50511)"/>
</g>
<g opacity="0.2">
<path d="M296.515 126.225C312.457 127.4 327.309 134.868 337.713 147.034L530.279 371.149L351.726 357.64C337.629 341.278 234.424 221.207 192.051 171.87C181.983 160.123 164.446 158.865 152.783 168.934L-3.70284 303.436L8.71533 139.063C9.47049 129.581 13.9176 121.275 20.6301 115.485C27.3426 109.779 36.2367 106.507 45.7181 107.262L296.515 126.225Z" fill="url(#paint4_linear_6141_50511)"/>
<path d="M126.605 514.21L-32.9858 328.524L-211.539 314.931L-18.9733 538.962C-8.56894 551.128 6.28252 558.68 22.2248 559.855L273.022 578.818C282.503 579.573 291.397 576.384 298.11 570.595C304.822 564.805 309.269 556.498 310.024 547.017L322.443 382.644L165.957 517.146C154.21 527.215 136.673 525.873 126.605 514.21Z" fill="url(#paint5_linear_6141_50511)"/>
</g>
<g opacity="0.25">
<path d="M231.068 124.379C245.249 121.862 259.765 125.134 271.511 133.441L488.158 286.067L329.827 313.504C324.996 310.105 310.869 300.15 292.208 287C249.609 256.981 183.382 210.312 150.182 186.973C138.855 179.002 123.332 181.687 115.361 193.014L8.7159 344.298L-16.54 198.636C-17.9664 190.245 -15.8688 182.023 -11.3378 175.562C-6.72295 169.101 0.325226 164.318 8.7159 162.892L231.068 124.379Z" fill="url(#paint6_linear_6141_50511)"/>
<path d="M168.39 499.189L-11.1702 372.574L-169.502 400.011L47.145 552.721C58.8919 560.944 73.4077 564.216 87.588 561.783L309.941 523.27C318.415 521.843 325.463 517.061 329.994 510.6C334.525 504.139 336.623 495.916 335.196 487.526L309.941 341.78L203.211 493.147C195.324 504.475 179.717 507.16 168.39 499.189Z" fill="url(#paint7_linear_6141_50511)"/>
</g>
<g opacity="0.35">
<path d="M187.939 134.027C200.274 129.496 213.951 129.999 225.865 135.537L446.456 237.484L308.262 288.331C292.152 280.863 174.011 226.24 125.429 203.837C113.934 198.551 100.341 203.585 95.0548 215.081L52.2691 285.089L26.0191 356.891L0.492035 305.448L-22.9179 241.847C-25.6868 234.463 -25.0995 226.744 -22.0788 220.115C-19.0582 213.57 -13.5204 208.116 -6.1366 205.431L187.939 134.027Z" fill="url(#paint8_linear_6141_50511)"/>
<path d="M193.226 482.237L10.4774 397.743L-127.717 448.59L92.8737 550.621C104.788 556.159 118.465 556.662 130.8 552.131L324.876 480.727C332.175 478.042 337.797 472.672 340.818 466.043C343.838 459.414 344.342 451.695 341.657 444.311L318.247 380.71L280.375 327.049L265.388 403.904L223.684 471.077C218.314 482.573 204.721 487.523 193.226 482.237Z" fill="url(#paint9_linear_6141_50511)"/>
</g>
<g opacity="0.4">
<path d="M155.048 148.292C165.621 142.335 178.207 140.909 189.87 144.181L405.678 205.097L287.034 271.467C271.259 267.02 155.552 234.381 108.061 220.955C96.8173 217.767 74.3724 230.269 71.1839 241.513L42.2318 371.56L19.8963 351.286L-21.575 277.173C-25.0991 270.88 -25.7704 263.748 -23.9245 257.287C-22.0785 250.826 -17.7992 245.037 -11.5062 241.513L155.048 148.292Z" fill="url(#paint10_linear_6141_50511)"/>
<path d="M210.511 465.038L31.5378 414.527L-87.1062 480.981L128.786 541.897C140.449 545.169 153.035 543.743 163.607 537.785L330.161 444.565C336.454 440.957 340.734 435.252 342.58 428.791C344.426 422.33 343.754 415.198 340.23 408.905L309.688 354.282L266.541 311.679V391.607L236.606 450.439C233.417 461.682 221.754 468.227 210.511 465.038Z" fill="url(#paint11_linear_6141_50511)"/>
</g>
<g opacity="0.5">
<path d="M130.801 163.73C139.863 156.85 151.19 153.913 162.434 155.507L369.599 184.707L268.408 260.978C260.591 259.892 227.088 255.188 190.264 250.018C155.934 245.198 118.717 239.973 96.7346 236.897C85.9107 235.386 65.7452 243.769 64.2349 254.593L56.5143 384.299L-16.0359 305.113C-20.1473 299.659 -21.5737 293.198 -20.7347 286.989C-19.8956 280.78 -16.6232 274.906 -11.2532 270.879L130.801 163.73Z" fill="url(#paint12_linear_6141_50511)"/>
<path d="M221.923 449.264L50.3343 425.183L-50.7732 501.538L156.224 530.57C167.384 532.08 178.795 529.143 187.857 522.347L329.911 415.282C335.281 411.255 338.554 405.381 339.393 399.172C340.232 392.963 338.721 386.418 334.694 381.048L299.579 334.48L254.311 292.081V360.197V418.902L244.159 432.483C242.648 443.223 232.747 450.775 221.923 449.264Z" fill="url(#paint13_linear_6141_50511)"/>
</g>
<path d="M109.739 180.929C117.207 173.462 127.36 169.266 137.932 169.266L333.183 169.35L249.528 253.005H87.672C77.4353 253.005 69.2964 261.228 69.2964 271.381V407.645L-7.72985 330.619C-12.1769 326.172 -14.4424 320.382 -14.4424 314.509C-14.4424 308.719 -12.1769 302.846 -7.72985 298.399L109.739 180.929Z" fill="url(#paint14_linear_6141_50511)"/>
<path d="M230.984 433.152H69.2125L-14.4424 516.807H180.724C191.297 516.807 201.449 512.612 208.917 505.144L326.386 387.675C330.833 383.228 333.099 377.438 333.099 371.565C333.099 365.775 330.833 359.902 326.386 355.455L249.36 278.428V414.777C249.36 424.929 241.137 433.152 230.984 433.152Z" fill="url(#paint15_linear_6141_50511)"/>
</g>
<defs>
<linearGradient id="paint0_linear_6141_50511" x1="493.658" y1="69.428" x2="83.2514" y2="557.078" gradientUnits="userSpaceOnUse">
<stop stop-color="#6F6C6C"/>
<stop offset="0.412233" stop-color="#B5B5B5"/>
<stop offset="0.577135" stop-color="white"/>
<stop offset="0.689706" stop-color="#9E9E9E"/>
<stop offset="1" stop-color="#777676"/>
</linearGradient>
<linearGradient id="paint1_linear_6141_50511" x1="493.658" y1="69.428" x2="83.2514" y2="557.078" gradientUnits="userSpaceOnUse">
<stop stop-color="#6F6C6C"/>
<stop offset="0.412233" stop-color="#B5B5B5"/>
<stop offset="0.577135" stop-color="white"/>
<stop offset="0.689706" stop-color="#9E9E9E"/>
<stop offset="1" stop-color="#777676"/>
</linearGradient>
<linearGradient id="paint2_linear_6141_50511" x1="464.772" y1="136.226" x2="215.873" y2="555.169" gradientUnits="userSpaceOnUse">
<stop stop-color="#6F6C6C"/>
<stop offset="0.412233" stop-color="#B5B5B5"/>
<stop offset="0.577135" stop-color="white"/>
<stop offset="0.689706" stop-color="#9E9E9E"/>
<stop offset="1" stop-color="#777676"/>
</linearGradient>
<linearGradient id="paint3_linear_6141_50511" x1="464.772" y1="136.226" x2="215.873" y2="555.169" gradientUnits="userSpaceOnUse">
<stop stop-color="#6F6C6C"/>
<stop offset="0.412233" stop-color="#B5B5B5"/>
<stop offset="0.577135" stop-color="white"/>
<stop offset="0.689706" stop-color="#9E9E9E"/>
<stop offset="1" stop-color="#777676"/>
</linearGradient>
<linearGradient id="paint4_linear_6141_50511" x1="437.691" y1="139.837" x2="256.306" y2="589.082" gradientUnits="userSpaceOnUse">
<stop stop-color="#6F6C6C"/>
<stop offset="0.412233" stop-color="#B5B5B5"/>
<stop offset="0.577135" stop-color="white"/>
<stop offset="0.689706" stop-color="#9E9E9E"/>
<stop offset="1" stop-color="#777676"/>
</linearGradient>
<linearGradient id="paint5_linear_6141_50511" x1="437.691" y1="139.837" x2="256.306" y2="589.082" gradientUnits="userSpaceOnUse">
<stop stop-color="#6F6C6C"/>
<stop offset="0.412233" stop-color="#B5B5B5"/>
<stop offset="0.577135" stop-color="white"/>
<stop offset="0.689706" stop-color="#9E9E9E"/>
<stop offset="1" stop-color="#777676"/>
</linearGradient>
<linearGradient id="paint6_linear_6141_50511" x1="378.115" y1="141.642" x2="204.304" y2="571.762" gradientUnits="userSpaceOnUse">
<stop stop-color="#6F6C6C"/>
<stop offset="0.412233" stop-color="#B5B5B5"/>
<stop offset="0.577135" stop-color="white"/>
<stop offset="0.689706" stop-color="#9E9E9E"/>
<stop offset="1" stop-color="#777676"/>
</linearGradient>
<linearGradient id="paint7_linear_6141_50511" x1="378.115" y1="141.642" x2="204.304" y2="571.762" gradientUnits="userSpaceOnUse">
<stop stop-color="#6F6C6C"/>
<stop offset="0.412233" stop-color="#B5B5B5"/>
<stop offset="0.577135" stop-color="white"/>
<stop offset="0.689706" stop-color="#9E9E9E"/>
<stop offset="1" stop-color="#777676"/>
</linearGradient>
<linearGradient id="paint8_linear_6141_50511" x1="378.114" y1="141.642" x2="220.536" y2="585.002" gradientUnits="userSpaceOnUse">
<stop stop-color="#6F6C6C"/>
<stop offset="0.412233" stop-color="#B5B5B5"/>
<stop offset="0.577135" stop-color="white"/>
<stop offset="0.689706" stop-color="#9E9E9E"/>
<stop offset="1" stop-color="#777676"/>
</linearGradient>
<linearGradient id="paint9_linear_6141_50511" x1="378.114" y1="141.642" x2="220.536" y2="585.002" gradientUnits="userSpaceOnUse">
<stop stop-color="#6F6C6C"/>
<stop offset="0.412233" stop-color="#B5B5B5"/>
<stop offset="0.577135" stop-color="white"/>
<stop offset="0.689706" stop-color="#9E9E9E"/>
<stop offset="1" stop-color="#777676"/>
</linearGradient>
<linearGradient id="paint10_linear_6141_50511" x1="363.672" y1="156.085" x2="178.042" y2="591.416" gradientUnits="userSpaceOnUse">
<stop stop-color="#6F6C6C"/>
<stop offset="0.412233" stop-color="#B5B5B5"/>
<stop offset="0.577135" stop-color="white"/>
<stop offset="0.689706" stop-color="#9E9E9E"/>
<stop offset="1" stop-color="#777676"/>
</linearGradient>
<linearGradient id="paint11_linear_6141_50511" x1="363.672" y1="156.085" x2="178.042" y2="591.416" gradientUnits="userSpaceOnUse">
<stop stop-color="#6F6C6C"/>
<stop offset="0.412233" stop-color="#B5B5B5"/>
<stop offset="0.577135" stop-color="white"/>
<stop offset="0.689706" stop-color="#9E9E9E"/>
<stop offset="1" stop-color="#777676"/>
</linearGradient>
<linearGradient id="paint12_linear_6141_50511" x1="312.075" y1="88.0546" x2="100.245" y2="589.161" gradientUnits="userSpaceOnUse">
<stop stop-color="#6F6C6C"/>
<stop offset="0.412233" stop-color="#B5B5B5"/>
<stop offset="0.577135" stop-color="white"/>
<stop offset="0.689706" stop-color="#9E9E9E"/>
<stop offset="1" stop-color="#777676"/>
</linearGradient>
<linearGradient id="paint13_linear_6141_50511" x1="312.075" y1="88.0546" x2="100.245" y2="589.161" gradientUnits="userSpaceOnUse">
<stop stop-color="#6F6C6C"/>
<stop offset="0.412233" stop-color="#B5B5B5"/>
<stop offset="0.577135" stop-color="white"/>
<stop offset="0.689706" stop-color="#9E9E9E"/>
<stop offset="1" stop-color="#777676"/>
</linearGradient>
<linearGradient id="paint14_linear_6141_50511" x1="333.183" y1="88.149" x2="110.588" y2="590.051" gradientUnits="userSpaceOnUse">
<stop stop-color="#6F6C6C"/>
<stop offset="0.412233" stop-color="#B5B5B5"/>
<stop offset="0.577135" stop-color="white"/>
<stop offset="0.707002" stop-color="#B6B6B6"/>
<stop offset="1" stop-color="#838383"/>
</linearGradient>
<linearGradient id="paint15_linear_6141_50511" x1="333.183" y1="88.149" x2="110.588" y2="590.051" gradientUnits="userSpaceOnUse">
<stop stop-color="#6F6C6C"/>
<stop offset="0.412233" stop-color="#B5B5B5"/>
<stop offset="0.577135" stop-color="white"/>
<stop offset="0.707002" stop-color="#B6B6B6"/>
<stop offset="1" stop-color="#838383"/>
</linearGradient>
</defs>
</svg>
