<svg width="1147" height="589" viewBox="0 0 1147 589" fill="none" xmlns="http://www.w3.org/2000/svg">
<g style="mix-blend-mode:hard-light" opacity="0.7">
<g opacity="0.1">
<path d="M997.776 314.305C1018.46 333.281 1030.73 359.642 1031.98 387.708L1054.48 904.822L823.132 692.795C822.166 671.424 817.882 573.18 813.44 471.32C810.042 393.38 806.551 313.322 804.383 263.968C803.247 237.039 780.408 216.359 753.479 217.495L392.26 233.289L587.357 20.3529C598.606 8.08123 613.832 1.49089 629.285 0.809129C644.738 0.12737 660.532 5.3542 672.804 16.6032L997.776 314.305Z" fill="url(#paint0_linear_6141_50490)"/>
<path d="M343.514 664.844L324.766 236.131L93.4224 24.104L115.92 541.332C117.17 569.398 129.442 595.759 150.122 614.735L474.98 912.437C487.366 923.686 503.046 928.912 518.499 928.231C533.953 927.549 549.179 920.959 560.428 908.687L755.638 695.751L394.419 711.545C367.49 712.681 344.651 691.774 343.514 664.844Z" fill="url(#paint1_linear_6141_50490)"/>
</g>
<g opacity="0.15">
<path d="M875.854 212.501C898.579 221.705 916.646 239.658 926.191 262.269L1102.08 679.62L847.788 576.106C834.948 545.54 740.752 321.923 702.005 229.999C692.802 208.297 667.804 198.184 646.101 207.388L354.649 330.104L449.982 96.0336C455.436 82.512 465.889 72.5129 478.388 67.2861C490.887 62.0592 505.318 61.6047 518.839 67.0588L875.854 212.501Z" fill="url(#paint2_linear_6141_50490)"/>
<path d="M445.778 699.053L300.109 353.06L45.9261 249.433L221.706 666.897C231.251 689.509 249.318 707.462 272.043 716.665L629.058 862.107C642.579 867.675 657.01 867.107 669.509 861.88C681.894 856.653 692.461 846.654 697.915 833.133L793.248 599.176L501.796 721.892C479.98 730.982 454.982 720.756 445.778 699.053Z" fill="url(#paint3_linear_6141_50490)"/>
</g>
<g opacity="0.2">
<path d="M759.727 170.913C781.316 172.503 801.428 182.616 815.518 199.092L1076.29 502.589L834.493 484.295C815.404 462.138 675.643 299.538 618.262 232.726C604.627 216.818 580.879 215.113 565.085 228.749L353.171 410.892L369.988 188.298C371.011 175.458 377.033 164.209 386.123 156.368C395.213 148.642 407.257 144.21 420.097 145.233L759.727 170.913Z" fill="url(#paint4_linear_6141_50490)"/>
<path d="M529.634 696.322L313.516 444.867L71.7189 426.459L332.492 729.842C346.582 746.318 366.693 756.544 388.282 758.135L727.912 783.815C740.752 784.837 752.797 780.519 761.887 772.679C770.977 764.839 776.999 753.59 778.022 740.75L794.838 518.156L582.925 700.299C567.017 713.934 543.269 712.116 529.634 696.322Z" fill="url(#paint5_linear_6141_50490)"/>
</g>
<g opacity="0.25">
<path d="M671.099 168.412C690.302 165.003 709.959 169.435 725.867 180.684L1019.25 387.371L804.838 424.527C798.296 419.923 779.165 406.442 753.895 388.635C696.207 347.983 606.522 284.783 561.563 253.178C546.224 242.383 525.203 246.019 514.408 261.359L369.989 466.228L335.787 268.972C333.855 257.609 336.696 246.474 342.832 237.724C349.081 228.975 358.626 222.498 369.989 220.567L671.099 168.412Z" fill="url(#paint6_linear_6141_50490)"/>
<path d="M586.22 675.981L343.059 504.518L128.646 541.674L422.029 748.475C437.937 759.61 457.595 764.042 476.797 760.746L777.908 708.592C789.384 706.66 798.929 700.183 805.065 691.434C811.201 682.685 814.041 671.549 812.11 660.187L777.908 462.817L633.375 667.8C622.694 683.139 601.559 686.775 586.22 675.981Z" fill="url(#paint7_linear_6141_50490)"/>
</g>
<g opacity="0.35">
<path d="M612.694 181.478C629.397 175.342 647.918 176.024 664.053 183.523L962.777 321.579L775.635 390.437C753.818 380.324 593.832 306.353 528.042 276.015C512.475 268.857 494.068 275.674 486.909 291.241L428.969 386.047L393.421 483.281L358.852 413.617L327.15 327.488C323.401 317.489 324.196 307.035 328.287 298.059C332.377 289.196 339.877 281.81 349.876 278.174L612.694 181.478Z" fill="url(#paint8_linear_6141_50490)"/>
<path d="M619.853 653.025L372.374 538.603L185.231 607.46L483.956 745.63C500.091 753.13 518.612 753.812 535.315 747.676L798.133 650.979C808.019 647.343 815.632 640.071 819.722 631.095C823.813 622.118 824.495 611.665 820.859 601.666L789.157 515.537L737.87 442.869L717.576 546.946L661.1 637.912C653.827 653.479 635.42 660.183 619.853 653.025Z" fill="url(#paint9_linear_6141_50490)"/>
</g>
<g opacity="0.4">
<path d="M568.153 200.796C582.47 192.729 599.514 190.797 615.308 195.228L907.555 277.721L746.887 367.6C725.526 361.578 568.835 317.377 504.522 299.197C489.296 294.879 458.901 311.809 454.583 327.035L415.376 503.145L385.129 475.691L328.969 375.327C324.196 366.805 323.287 357.146 325.787 348.397C328.287 339.648 334.082 331.808 342.604 327.035L568.153 200.796Z" fill="url(#paint10_linear_6141_50490)"/>
<path d="M643.26 629.735L400.894 561.331L240.226 651.324L532.587 733.816C548.382 738.248 565.426 736.316 579.742 728.249L805.291 602.01C813.813 597.124 819.608 589.397 822.108 580.648C824.608 571.899 823.699 562.24 818.926 553.718L777.566 479.747L719.136 422.054V530.293L678.598 609.963C674.28 625.189 658.486 634.052 643.26 629.735Z" fill="url(#paint11_linear_6141_50490)"/>
</g>
<g opacity="0.5">
<path d="M535.316 221.702C547.588 212.384 562.927 208.407 578.153 210.566L858.697 250.108L721.664 353.395C711.079 351.925 665.709 345.555 615.842 338.554C569.352 332.027 518.952 324.951 489.184 320.784C474.526 318.739 447.218 330.091 445.173 344.749L434.717 520.397L336.47 413.163C330.902 405.777 328.97 397.028 330.107 388.619C331.243 380.211 335.674 372.257 342.946 366.803L535.316 221.702Z" fill="url(#paint12_linear_6141_50490)"/>
<path d="M658.715 608.373L426.348 575.762L289.428 679.163L569.745 718.477C584.857 720.523 600.311 716.546 612.582 707.342L804.952 562.354C812.224 556.9 816.656 548.946 817.792 540.538C818.928 532.13 816.883 523.267 811.429 515.995L763.876 452.932L702.575 395.515V487.758V567.256L688.826 585.648C686.78 600.192 673.373 610.418 658.715 608.373Z" fill="url(#paint13_linear_6141_50490)"/>
</g>
<path d="M506.795 244.993C516.908 234.881 530.657 229.199 544.974 229.199L809.383 229.313L696.097 342.599H476.911C463.049 342.599 452.027 353.734 452.027 367.483V552.012L347.718 447.703C341.696 441.681 338.628 433.841 338.628 425.887C338.628 418.047 341.696 410.093 347.718 404.071L506.795 244.993Z" fill="url(#paint14_linear_6141_50490)"/>
<path d="M670.985 586.554H451.913L338.628 699.84H602.923C617.24 699.84 630.989 694.158 641.102 684.046L800.179 524.968C806.201 518.946 809.269 511.106 809.269 503.152C809.269 495.312 806.201 487.358 800.179 481.336L695.87 377.027V561.67C695.87 575.419 684.734 586.554 670.985 586.554Z" fill="url(#paint15_linear_6141_50490)"/>
</g>
<defs>
<linearGradient id="paint0_linear_6141_50490" x1="1026.7" y1="93.9979" x2="470.925" y2="754.375" gradientUnits="userSpaceOnUse">
<stop stop-color="#6F6C6C"/>
<stop offset="0.412233" stop-color="#B5B5B5"/>
<stop offset="0.577135" stop-color="white"/>
<stop offset="0.689706" stop-color="#9E9E9E"/>
<stop offset="1" stop-color="#777676"/>
</linearGradient>
<linearGradient id="paint1_linear_6141_50490" x1="1026.7" y1="93.9979" x2="470.925" y2="754.375" gradientUnits="userSpaceOnUse">
<stop stop-color="#6F6C6C"/>
<stop offset="0.412233" stop-color="#B5B5B5"/>
<stop offset="0.577135" stop-color="white"/>
<stop offset="0.689706" stop-color="#9E9E9E"/>
<stop offset="1" stop-color="#777676"/>
</linearGradient>
<linearGradient id="paint2_linear_6141_50490" x1="987.581" y1="184.456" x2="650.521" y2="751.789" gradientUnits="userSpaceOnUse">
<stop stop-color="#6F6C6C"/>
<stop offset="0.412233" stop-color="#B5B5B5"/>
<stop offset="0.577135" stop-color="white"/>
<stop offset="0.689706" stop-color="#9E9E9E"/>
<stop offset="1" stop-color="#777676"/>
</linearGradient>
<linearGradient id="paint3_linear_6141_50490" x1="987.581" y1="184.456" x2="650.521" y2="751.789" gradientUnits="userSpaceOnUse">
<stop stop-color="#6F6C6C"/>
<stop offset="0.412233" stop-color="#B5B5B5"/>
<stop offset="0.577135" stop-color="white"/>
<stop offset="0.689706" stop-color="#9E9E9E"/>
<stop offset="1" stop-color="#777676"/>
</linearGradient>
<linearGradient id="paint4_linear_6141_50490" x1="950.908" y1="189.346" x2="705.276" y2="797.715" gradientUnits="userSpaceOnUse">
<stop stop-color="#6F6C6C"/>
<stop offset="0.412233" stop-color="#B5B5B5"/>
<stop offset="0.577135" stop-color="white"/>
<stop offset="0.689706" stop-color="#9E9E9E"/>
<stop offset="1" stop-color="#777676"/>
</linearGradient>
<linearGradient id="paint5_linear_6141_50490" x1="950.908" y1="189.346" x2="705.276" y2="797.715" gradientUnits="userSpaceOnUse">
<stop stop-color="#6F6C6C"/>
<stop offset="0.412233" stop-color="#B5B5B5"/>
<stop offset="0.577135" stop-color="white"/>
<stop offset="0.689706" stop-color="#9E9E9E"/>
<stop offset="1" stop-color="#777676"/>
</linearGradient>
<linearGradient id="paint6_linear_6141_50490" x1="870.229" y1="191.791" x2="634.854" y2="774.259" gradientUnits="userSpaceOnUse">
<stop stop-color="#6F6C6C"/>
<stop offset="0.412233" stop-color="#B5B5B5"/>
<stop offset="0.577135" stop-color="white"/>
<stop offset="0.689706" stop-color="#9E9E9E"/>
<stop offset="1" stop-color="#777676"/>
</linearGradient>
<linearGradient id="paint7_linear_6141_50490" x1="870.229" y1="191.791" x2="634.854" y2="774.259" gradientUnits="userSpaceOnUse">
<stop stop-color="#6F6C6C"/>
<stop offset="0.412233" stop-color="#B5B5B5"/>
<stop offset="0.577135" stop-color="white"/>
<stop offset="0.689706" stop-color="#9E9E9E"/>
<stop offset="1" stop-color="#777676"/>
</linearGradient>
<linearGradient id="paint8_linear_6141_50490" x1="870.229" y1="191.791" x2="656.836" y2="792.19" gradientUnits="userSpaceOnUse">
<stop stop-color="#6F6C6C"/>
<stop offset="0.412233" stop-color="#B5B5B5"/>
<stop offset="0.577135" stop-color="white"/>
<stop offset="0.689706" stop-color="#9E9E9E"/>
<stop offset="1" stop-color="#777676"/>
</linearGradient>
<linearGradient id="paint9_linear_6141_50490" x1="870.229" y1="191.791" x2="656.836" y2="792.19" gradientUnits="userSpaceOnUse">
<stop stop-color="#6F6C6C"/>
<stop offset="0.412233" stop-color="#B5B5B5"/>
<stop offset="0.577135" stop-color="white"/>
<stop offset="0.689706" stop-color="#9E9E9E"/>
<stop offset="1" stop-color="#777676"/>
</linearGradient>
<linearGradient id="paint10_linear_6141_50490" x1="850.671" y1="211.349" x2="599.291" y2="800.876" gradientUnits="userSpaceOnUse">
<stop stop-color="#6F6C6C"/>
<stop offset="0.412233" stop-color="#B5B5B5"/>
<stop offset="0.577135" stop-color="white"/>
<stop offset="0.689706" stop-color="#9E9E9E"/>
<stop offset="1" stop-color="#777676"/>
</linearGradient>
<linearGradient id="paint11_linear_6141_50490" x1="850.671" y1="211.349" x2="599.291" y2="800.876" gradientUnits="userSpaceOnUse">
<stop stop-color="#6F6C6C"/>
<stop offset="0.412233" stop-color="#B5B5B5"/>
<stop offset="0.577135" stop-color="white"/>
<stop offset="0.689706" stop-color="#9E9E9E"/>
<stop offset="1" stop-color="#777676"/>
</linearGradient>
<linearGradient id="paint12_linear_6141_50490" x1="780.799" y1="119.222" x2="493.938" y2="797.822" gradientUnits="userSpaceOnUse">
<stop stop-color="#6F6C6C"/>
<stop offset="0.412233" stop-color="#B5B5B5"/>
<stop offset="0.577135" stop-color="white"/>
<stop offset="0.689706" stop-color="#9E9E9E"/>
<stop offset="1" stop-color="#777676"/>
</linearGradient>
<linearGradient id="paint13_linear_6141_50490" x1="780.799" y1="119.222" x2="493.938" y2="797.822" gradientUnits="userSpaceOnUse">
<stop stop-color="#6F6C6C"/>
<stop offset="0.412233" stop-color="#B5B5B5"/>
<stop offset="0.577135" stop-color="white"/>
<stop offset="0.689706" stop-color="#9E9E9E"/>
<stop offset="1" stop-color="#777676"/>
</linearGradient>
<linearGradient id="paint14_linear_6141_50490" x1="809.383" y1="119.35" x2="507.944" y2="799.027" gradientUnits="userSpaceOnUse">
<stop stop-color="#6F6C6C"/>
<stop offset="0.412233" stop-color="#B5B5B5"/>
<stop offset="0.577135" stop-color="white"/>
<stop offset="0.707002" stop-color="#B6B6B6"/>
<stop offset="1" stop-color="#838383"/>
</linearGradient>
<linearGradient id="paint15_linear_6141_50490" x1="809.383" y1="119.35" x2="507.944" y2="799.027" gradientUnits="userSpaceOnUse">
<stop stop-color="#6F6C6C"/>
<stop offset="0.412233" stop-color="#B5B5B5"/>
<stop offset="0.577135" stop-color="white"/>
<stop offset="0.707002" stop-color="#B6B6B6"/>
<stop offset="1" stop-color="#838383"/>
</linearGradient>
</defs>
</svg>
