<svg width="376" height="874" viewBox="0 0 376 874" fill="none" xmlns="http://www.w3.org/2000/svg">
<g opacity="0.3">
<g opacity="0.02">
<path d="M-359.916 471.635C-360.942 497.177 -351.79 522.082 -334.484 540.857L-62.3103 836.022C-51.9936 847.198 -38.127 853.133 -24.0662 853.716C-9.97772 854.298 4.30487 849.473 15.5091 839.184L208.948 660.831L-120.162 647.491C-144.733 646.493 -163.842 625.943 -162.843 601.371C-158.628 497.621 -148.394 245.055 -146.98 210.582L-340.807 0.39209L-359.916 471.635Z" fill="#4A21EF"/>
<path d="M270.461 663.355L286.296 272.732C287.295 248.161 268.186 227.444 243.642 226.473L-85.4678 213.106L107.972 34.7535C119.148 24.4368 133.458 19.6389 147.547 20.2213C161.635 20.8037 175.502 26.7386 185.791 37.9151L457.965 333.08C475.298 351.883 484.45 376.787 483.396 402.302L464.288 873.545L270.461 663.355Z" fill="#4A21EF"/>
</g>
<g opacity="0.04">
<path d="M-302.453 556.166C-297.988 578.879 -284.703 598.903 -265.484 611.799L36.3641 814.612C47.7902 822.294 61.2686 824.624 73.7762 822.155C86.3116 819.687 97.9041 812.449 105.586 801.023L238.512 603.229L-54.2403 660.692C-76.0941 664.991 -97.2546 650.875 -101.525 629.049C-119.663 536.725 -163.731 312.058 -169.749 281.413L-384.709 136.978L-302.453 556.166Z" fill="#4A21EF"/>
<path d="M293.229 592.524L225.061 245.055C220.763 223.201 199.602 208.974 177.748 213.272L-115.004 270.68L17.9217 72.8869C25.6038 61.4608 37.1963 54.2224 49.7317 51.7541C62.2671 49.2859 75.7177 51.6155 87.1438 59.2976L388.965 262.111C408.184 275.034 421.468 295.03 425.933 317.743L508.162 736.931L293.229 592.524Z" fill="#4A21EF"/>
</g>
<g opacity="0.06">
<path d="M-234.118 618.011C-225.438 637.091 -209.546 651.929 -189.939 659.306L118.26 774.898C129.936 779.28 142.277 778.503 152.788 773.733C163.299 768.963 172.007 760.172 176.389 748.496L252.129 546.542L6.30133 658.28C-12.058 666.627 -33.6345 658.612 -41.9545 640.281C-77.1757 562.711 -162.927 374.042 -174.63 348.333L-394.083 265.993L-234.118 618.011Z" fill="#4A21EF"/>
<path d="M298.11 525.604L165.49 233.822C157.142 215.491 135.51 207.365 117.179 215.713L-128.649 327.422L-52.9092 125.469C-48.5274 113.793 -39.8469 105.002 -29.3083 100.232C-18.7974 95.4614 -6.45608 94.6849 5.2196 99.0667L313.419 214.659C333.026 222.008 348.945 236.873 357.598 255.954L517.563 607.944L298.11 525.604Z" fill="#4A21EF"/>
</g>
<g opacity="0.08">
<path d="M-154.108 662.024C-142.21 676.639 -124.988 685.902 -106.24 687.816L188.148 717.851C199.297 718.988 209.863 715.493 217.906 708.948C225.948 702.376 231.523 692.752 232.66 681.603L252.35 488.663L64.1527 642C50.1197 653.454 29.5139 651.43 18.0601 637.369C-30.3066 578.075 -147.979 433.641 -164.036 413.922L-373.699 392.512L-154.108 662.024Z" fill="#4A21EF"/>
<path d="M287.516 460.015L105.503 236.624C94.0492 222.591 73.3879 220.483 59.3549 231.909L-128.843 385.246L-109.152 192.306C-108.015 181.157 -102.468 171.534 -94.3981 164.961C-86.3555 158.388 -75.7891 154.922 -64.6404 156.059L229.748 186.122C248.496 188.035 265.718 197.326 277.615 211.913L497.207 481.425L287.516 460.015Z" fill="#4A21EF"/>
</g>
<g opacity="0.1">
<path d="M-97.3377 675.641C-84.1921 686.928 -67.1084 692.558 -49.8306 691.254L221.594 670.898C231.883 670.122 240.869 665.268 247.109 658.03C253.349 650.792 256.816 641.168 256.039 630.879L242.699 452.998L97.0723 622.254C86.2008 634.873 67.2313 636.398 54.6127 625.527C1.19846 579.6 -128.704 467.836 -146.425 452.582L-339.726 467.087L-97.3377 675.641Z" fill="#4A21EF"/>
<path d="M269.906 421.355L69.0064 248.494C56.3878 237.622 37.3351 239.064 26.4637 251.683L-119.191 420.939L-132.531 243.058C-133.307 232.769 -129.841 223.145 -123.601 215.907C-117.361 208.669 -108.375 203.788 -98.0863 203.039L173.339 182.683C190.617 181.379 207.7 187.009 220.846 198.296L463.234 406.85L269.906 421.355Z" fill="#4A21EF"/>
</g>
<g opacity="0.12">
<path d="M-46.309 678.969C-32.6088 687.233 -16.163 689.729 -0.632355 685.874L243.503 625.388C252.738 623.086 260.199 617.262 264.747 609.719C269.295 602.148 270.987 592.857 268.685 583.622L229.054 423.629L122.531 600.317C114.571 613.491 97.5432 617.789 84.3422 609.858C28.6262 576.273 -106.989 494.515 -125.487 483.366L-299.347 526.436L-46.309 678.969Z" fill="#4A21EF"/>
<path d="M248.967 390.571L39.2203 264.135C26.047 256.176 8.90791 260.419 0.948471 273.62L-105.575 450.308L-145.206 290.343C-147.507 281.108 -145.816 271.789 -141.268 264.246C-136.719 256.675 -129.259 250.851 -120.024 248.577L124.112 188.063C139.642 184.208 156.088 186.704 169.788 194.968L422.799 347.501L248.967 390.571Z" fill="#4A21EF"/>
</g>
<g opacity="0.02">
<path d="M-7.59312 675.945C6.21802 681.88 21.8318 682.047 35.7816 676.472L255.013 588.78C263.305 585.452 269.49 579.101 272.762 571.474C276.035 563.848 276.395 555.001 273.067 546.681L215.604 402.995L139.282 581.042C133.597 594.327 118.288 600.511 105.004 594.826C48.8718 570.781 -87.7699 512.209 -106.407 504.221L-262.545 566.649L-7.59312 675.945Z" fill="#4A21EF"/>
<path d="M229.886 369.715L18.5592 279.139C5.27502 273.453 -10.1169 279.61 -15.8022 292.894L-92.1241 470.942L-149.587 327.256C-152.915 318.936 -152.555 310.089 -149.282 302.462C-146.01 294.836 -139.853 288.485 -131.533 285.157L87.6982 197.464C101.648 191.89 117.262 192.084 131.073 197.991L386.025 307.288L229.886 369.715Z" fill="#4A21EF"/>
</g>
<g opacity="0.03">
<path d="M43.88 663.521C57.3306 666.267 71.3359 663.549 82.7897 655.978L262.695 537.03C269.518 532.537 273.844 525.687 275.369 518.255C276.895 510.85 275.563 502.835 271.071 496.04L193.112 378.146L157.753 551.507C155.118 564.43 142.583 572.806 129.631 570.171C74.969 559.022 -58.0673 531.899 -76.2326 528.183L-204.36 612.88L43.88 663.521Z" fill="#4A21EF"/>
<path d="M199.713 345.754L-6.06755 303.766C-18.9912 301.131 -31.6376 309.479 -34.2722 322.402L-69.6321 495.79L-147.562 377.897C-152.055 371.074 -153.386 363.087 -151.861 355.682C-150.336 348.277 -146.009 341.427 -139.187 336.907L40.7184 217.959C52.1722 210.388 66.1498 207.67 79.6281 210.416L327.868 261.056L199.713 345.754Z" fill="#4A21EF"/>
</g>
<g opacity="0.04">
<path d="M91.7474 639.809C104.144 639.504 115.903 634.29 124.445 625.332L258.674 484.42C263.749 479.095 266.189 472.19 266.023 465.367C265.857 458.545 263.083 451.778 257.758 446.703L165.435 358.761L169.317 518.338C169.595 530.235 160.248 540.136 148.351 540.413C98.0428 541.634 -24.4549 544.601 -41.1503 545.017L-136.774 645.356L91.7474 639.809Z" fill="#4A21EF"/>
<path d="M164.686 328.92L-24.7322 333.524C-36.6298 333.801 -46.0591 343.702 -45.7817 355.599L-41.8991 515.176L-134.251 427.234C-139.576 422.159 -142.349 415.392 -142.515 408.57C-142.682 401.747 -140.241 394.842 -135.166 389.517L-0.964828 248.604C7.57701 239.647 19.3359 234.433 31.7327 234.128L260.254 228.581L164.686 328.92Z" fill="#4A21EF"/>
</g>
<g opacity="0.05">
<path d="M147.99 603.229C158.584 599.291 167.209 591.304 171.924 581.015L245.944 419.413C248.745 413.284 248.801 406.628 246.637 400.777C244.474 394.925 240.065 389.905 233.936 387.104L128.022 338.599L178.83 475.268C182.629 485.474 177.498 496.789 167.293 500.589C124.195 516.618 19.3082 555.611 4.99783 560.936L-47.6953 676.029L147.99 603.229Z" fill="#4A21EF"/>
<path d="M118.51 313.029L-43.7295 373.348C-53.9353 377.148 -59.1214 388.491 -55.322 398.697L-4.51472 535.366L-110.428 486.861C-116.557 484.059 -120.967 479.04 -123.13 473.188C-125.293 467.336 -125.237 460.653 -122.436 454.551L-48.4441 292.922C-43.7295 282.633 -35.1322 274.646 -24.5104 270.708L171.203 197.936L118.51 313.029Z" fill="#4A21EF"/>
</g>
<g opacity="0.05">
<path d="M180.633 552.644C188.453 546.376 193.445 537.252 194.527 527.296L211.638 370.797C212.276 364.862 210.474 359.232 207.007 354.934C203.54 350.635 198.437 347.64 192.53 346.974L89.9726 335.77L170.815 436.469C176.861 443.985 175.696 454.94 168.18 460.958C136.454 486.472 59.161 548.512 48.6224 556.97L36.4475 668.402L180.633 552.644Z" fill="#4A21EF"/>
<path d="M74.8579 316.967L-44.6723 412.924C-52.188 418.97 -53.3806 429.952 -47.3625 437.468L33.4799 538.167L-69.0776 526.963C-75.0125 526.325 -80.1154 523.33 -83.5821 519.003C-87.0487 514.705 -88.8514 509.075 -88.2135 503.14L-71.1021 346.641C-70.0205 336.685 -65.0008 327.561 -57.2078 321.293L86.9773 205.507L74.8579 316.967Z" fill="#4A21EF"/>
</g>
<g opacity="0.06">
<path d="M193.196 500.145C197.966 492.74 199.574 483.727 197.689 475.129L168.18 339.902C167.071 334.772 163.965 330.584 159.888 327.977C155.811 325.342 150.709 324.288 145.578 325.398L56.9702 344.728L152.539 406.046C159.666 410.622 161.774 420.079 157.198 427.206C137.868 457.325 90.8047 530.651 84.3706 540.663L105.392 636.953L193.196 500.145Z" fill="#4A21EF"/>
<path d="M39.1098 333.274L-33.6899 446.703C-38.2659 453.83 -36.1859 463.315 -29.0584 467.891L66.4825 529.209L-22.1251 548.539C-27.2558 549.649 -32.331 548.595 -36.4355 545.96C-40.5123 543.326 -43.6184 539.165 -44.7277 534.035L-74.2081 398.808C-76.094 390.21 -74.4577 381.197 -69.7154 373.792L18.088 236.957L39.1098 333.274Z" fill="#4A21EF"/>
</g>
<g opacity="0.08">
<path d="M188.62 455.772C190.672 448.311 189.701 440.324 185.874 433.585L125.859 327.7C123.585 323.678 119.897 320.988 115.792 319.851C111.688 318.714 107.112 319.158 103.118 321.404L33.7019 360.73L129.936 387.354C137.119 389.35 141.335 396.728 139.365 403.91C130.962 434.251 110.551 508.104 107.75 518.171L150.487 593.578L188.62 455.772Z" fill="#4A21EF"/>
<path d="M15.7307 355.766L-15.8851 469.999C-17.8819 477.182 -13.6665 484.614 -6.48358 486.611L89.7507 513.235L20.3899 552.533C16.3686 554.807 11.8204 555.251 7.71583 554.086C3.61131 552.949 -0.0771942 550.231 -2.35132 546.237L-62.3938 440.352C-66.221 433.613 -67.1916 425.626 -65.1394 418.165L-27.0062 280.359L15.7307 355.766Z" fill="#4A21EF"/>
</g>
<g opacity="0.1">
<path d="M173.532 418.221C173.227 411.371 170.232 404.937 165.185 400.305L85.8676 327.644C82.8724 324.899 79.0175 323.623 75.2458 323.789C71.4741 323.956 67.7578 325.564 65.0122 328.559L17.3943 380.531L105.558 376.677C112.131 376.399 117.705 381.447 117.983 388.019C119.203 415.808 122.143 483.477 122.559 492.685L179.024 544.435L173.532 418.221Z" fill="#4A21EF"/>
<path d="M0.920906 381.225L5.49689 485.862C5.77422 492.435 11.3486 497.538 17.9214 497.261L106.085 493.406L58.4396 545.378C55.694 548.373 51.9778 549.981 48.2061 550.148C44.4343 550.314 40.6072 549.039 37.5842 546.293L-41.7051 473.632C-46.7525 469 -49.7477 462.566 -50.0528 455.716L-55.5439 329.475L0.920906 381.225Z" fill="#4A21EF"/>
</g>
<g opacity="0.1">
<path d="M147.713 387.603C145.384 382.084 140.974 377.703 135.427 375.456L48.2896 339.958C44.9893 338.626 41.4672 338.737 38.4166 340.013C35.3659 341.289 32.8145 343.729 31.4833 347.03L8.21509 404.16L79.3508 374.208C84.6479 371.962 90.7492 374.43 92.9956 379.727C102.453 402.163 125.443 456.742 128.577 464.203L190.644 489.468L147.713 387.603Z" fill="#4A21EF"/>
<path d="M-5.09699 409.762L30.457 494.21C32.7034 499.507 38.8047 502.003 44.1295 499.784L115.265 469.832L91.997 526.935C90.6658 530.235 88.0867 532.676 85.0637 533.952C82.0131 535.227 78.491 535.366 75.1907 534.007L-11.9471 498.509C-17.4937 496.262 -21.9033 491.88 -24.2329 486.361L-67.1362 384.469L-5.09699 409.762Z" fill="#4A21EF"/>
</g>
<g opacity="0.14">
<path d="M120.701 372.184C117.262 368.162 112.353 365.694 107.084 365.306L24.1894 359.038C21.0555 358.788 18.1158 359.87 15.8971 361.756C13.6785 363.669 12.2086 366.415 11.959 369.549L7.85449 423.878L59.577 379.422C63.4319 376.094 69.2281 376.51 72.5561 380.393C86.5614 396.7 120.673 436.386 125.332 441.794L184.349 446.259L120.701 372.184Z" fill="#4A21EF"/>
<path d="M-1.82427 432.171L50.9243 493.544C54.2523 497.399 60.0486 497.843 63.9312 494.515L115.654 450.058L111.549 504.388C111.3 507.522 109.83 510.267 107.611 512.181C105.392 514.094 102.453 515.148 99.3188 514.899L16.4242 508.631C11.1549 508.243 6.2461 505.747 2.80718 501.725L-60.8406 427.678L-1.82427 432.171Z" fill="#4A21EF"/>
</g>
<g opacity="0.18">
<path d="M98.8193 367.691C94.9366 364.945 90.1388 363.864 85.4519 364.696L11.9588 377.425C9.18548 377.897 6.85588 379.478 5.33055 381.613C3.83296 383.749 3.13964 386.466 3.61111 389.24L11.9588 437.385L47.2077 387.382C49.8424 383.638 54.973 382.75 58.717 385.385C74.4972 396.478 112.852 423.518 118.094 427.206L170.426 418.138L98.8193 367.691Z" fill="#4A21EF"/>
<path d="M5.38607 446.731L64.7352 488.58C68.4792 491.215 73.6376 490.327 76.2445 486.583L111.521 436.553L119.869 484.725C120.34 487.499 119.647 490.217 118.149 492.352C116.652 494.487 114.322 496.068 111.521 496.54L38.0281 509.269C33.3412 510.074 28.5433 508.992 24.6607 506.274L-46.9465 455.8L5.38607 446.731Z" fill="#4A21EF"/>
</g>
<g opacity="0.22">
<path d="M83.7323 368.384C79.7942 366.554 75.2737 366.387 71.1969 367.885L7.04997 391.486C4.60945 392.373 2.77905 394.176 1.78066 396.339C0.782261 398.53 0.588128 401.082 1.50332 403.522L16.9785 445.566L40.4963 394.675C42.2434 390.876 46.7362 389.212 50.5357 390.959C66.5932 398.364 105.642 416.418 110.966 418.886L156.643 402.08L83.7323 368.384Z" fill="#4A21EF"/>
<path d="M12.5411 455.051L72.9441 482.978C76.7435 484.725 81.2363 483.089 83.0113 479.289L106.529 428.399L122.004 470.443C122.892 472.883 122.725 475.434 121.727 477.625C120.728 479.816 118.87 481.591 116.458 482.479L52.3106 506.08C48.2338 507.577 43.7133 507.411 39.7751 505.581L-33.1355 471.857L12.5411 455.051Z" fill="#4A21EF"/>
</g>
<g opacity="0.28">
<path d="M71.8349 371.241C67.98 370.159 63.82 370.631 60.3256 372.6L5.27515 403.411C3.19516 404.576 1.78075 406.49 1.17062 408.625C0.560492 410.76 0.782371 413.118 1.94717 415.198L22.137 451.279L36.1977 401.442C37.2516 397.726 41.0788 395.563 44.795 396.617C60.492 401.054 98.7361 411.842 103.95 413.312L143.165 391.375L71.8349 371.241Z" fill="#4A21EF"/>
<path d="M19.5024 460.597L78.6573 477.292C82.3736 478.346 86.2285 476.183 87.2824 472.467L101.343 422.63L121.533 458.739C122.698 460.819 122.92 463.176 122.309 465.312C121.699 467.447 120.285 469.333 118.205 470.525L63.1545 501.337C59.6601 503.306 55.5001 503.778 51.6452 502.696L-19.7124 482.562L19.5024 460.597Z" fill="#4A21EF"/>
</g>
<g opacity="0.3">
<path d="M62.766 374.985C59.0497 374.458 55.3058 375.429 52.3106 377.703L5.35822 413.118C3.5833 414.449 2.5017 416.391 2.22437 418.443C1.94704 420.495 2.4185 422.631 3.77743 424.433L26.9901 455.217L33.7016 407.433C34.2008 403.855 37.4733 401.387 41.0509 401.886C56.11 403.994 92.8011 409.152 97.7931 409.846L131.239 384.636L62.766 374.985Z" fill="#4A21EF"/>
<path d="M25.7144 464.119L82.4289 472.079C86.0065 472.578 89.279 470.082 89.7782 466.532L96.4896 418.748L119.702 449.532C121.034 451.307 121.533 453.47 121.255 455.522C120.978 457.574 119.896 459.516 118.122 460.847L71.1692 496.234C68.174 498.481 64.4023 499.451 60.7138 498.952L-7.7041 489.357L25.7144 464.119Z" fill="#4A21EF"/>
</g>
<path d="M54.6677 379.533C51.1734 379.533 47.8176 380.92 45.3494 383.388L6.52286 422.214C5.053 423.684 4.3042 425.626 4.3042 427.539C4.3042 429.48 5.053 431.394 6.52286 432.864L31.982 458.323V413.284C31.982 409.929 34.6721 407.211 38.0555 407.211C52.2549 407.211 86.8383 407.211 91.5529 407.211L119.203 379.561L54.6677 379.533Z" fill="#4A21EF"/>
<path d="M31.9542 466.754H85.4239C88.7796 466.754 91.4975 464.036 91.4975 460.68V415.614L116.957 441.073C118.426 442.543 119.175 444.484 119.175 446.398C119.175 448.339 118.426 450.253 116.957 451.722L78.13 490.549C75.6618 493.017 72.3061 494.404 68.8117 494.404H4.3042L31.9542 466.754Z" fill="#4A21EF"/>
</g>
</svg>
