<svg width="376" height="874" viewBox="0 0 376 874" fill="none" xmlns="http://www.w3.org/2000/svg">
<g opacity="0.3">
<g opacity="0.02">
<path d="M-54.1172 471.823C-55.1433 497.365 -45.9914 522.27 -28.6858 541.045L243.488 836.21C253.805 847.386 267.671 853.321 281.732 853.904C295.821 854.486 310.103 849.661 321.307 839.372L514.747 661.019L185.637 647.679C161.065 646.681 141.957 626.131 142.955 601.559C147.171 497.809 157.404 245.243 158.818 210.77L-35.009 0.580078L-54.1172 471.823Z" fill="#4A21EF"/>
<path d="M576.259 663.543L592.095 272.92C593.093 248.349 573.985 227.632 549.441 226.661L220.331 213.294L413.77 34.9415C424.946 24.6248 439.257 19.8269 453.345 20.4093C467.434 20.9917 481.3 26.9266 491.589 38.1031L763.763 333.268C781.096 352.071 790.248 376.975 789.195 402.49L770.086 873.733L576.259 663.543Z" fill="#4A21EF"/>
</g>
<g opacity="0.04">
<path d="M3.34561 556.354C7.81066 579.067 21.0949 599.091 40.314 611.987L342.162 814.8C353.589 822.482 367.067 824.812 379.575 822.343C392.11 819.875 403.702 812.637 411.385 801.211L544.31 603.417L251.558 660.88C229.704 665.179 208.544 651.063 204.273 629.237C186.135 536.913 142.067 312.246 136.049 281.601L-78.9111 137.166L3.34561 556.354Z" fill="#4A21EF"/>
<path d="M599.028 592.712L530.859 245.243C526.561 223.389 505.4 209.162 483.547 213.46L190.795 270.868L323.72 73.0747C331.402 61.6486 342.995 54.4103 355.53 51.942C368.065 49.4738 381.516 51.8033 392.942 59.4855L694.763 262.299C713.982 275.222 727.266 295.218 731.731 317.931L813.96 737.119L599.028 592.712Z" fill="#4A21EF"/>
</g>
<g opacity="0.06">
<path d="M71.6803 618.199C80.3608 637.279 96.252 652.117 115.859 659.494L424.059 775.086C435.734 779.468 448.076 778.691 458.587 773.921C469.097 769.151 477.806 760.36 482.188 748.684L557.927 546.73L312.1 658.468C293.74 666.815 272.164 658.8 263.844 640.469C228.623 562.899 142.872 374.23 131.168 348.521L-88.2849 266.181L71.6803 618.199Z" fill="#4A21EF"/>
<path d="M603.909 525.792L471.288 234.01C462.941 215.679 441.309 207.553 422.977 215.901L177.15 327.61L252.889 125.657C257.271 113.981 265.951 105.19 276.49 100.42C287.001 95.6494 299.342 94.8729 311.018 99.2547L619.217 214.847C638.825 222.196 654.744 237.061 663.396 256.142L823.362 608.132L603.909 525.792Z" fill="#4A21EF"/>
</g>
<g opacity="0.08">
<path d="M151.691 662.212C163.588 676.827 180.81 686.09 199.558 688.004L493.946 718.039C505.095 719.176 515.661 715.681 523.704 709.136C531.747 702.563 537.321 692.94 538.458 681.791L558.149 488.851L369.951 642.188C355.918 653.642 335.312 651.617 323.858 637.557C275.492 578.263 157.82 433.828 141.762 414.11L-67.9011 392.7L151.691 662.212Z" fill="#4A21EF"/>
<path d="M593.314 460.203L411.301 236.812C399.848 222.779 379.186 220.671 365.153 232.097L176.956 385.434L196.646 192.494C197.783 181.345 203.33 171.722 211.4 165.149C219.443 158.576 230.009 155.11 241.158 156.247L535.546 186.309C554.294 188.223 571.516 197.514 583.414 212.101L803.005 481.613L593.314 460.203Z" fill="#4A21EF"/>
</g>
<g opacity="0.1">
<path d="M208.461 675.829C221.606 687.116 238.69 692.746 255.968 691.442L527.393 671.086C537.682 670.31 546.667 665.456 552.907 658.218C559.147 650.98 562.614 641.356 561.837 631.067L548.498 453.186L402.871 622.442C391.999 635.061 373.03 636.586 360.411 625.715C306.997 579.788 177.094 468.023 159.373 452.77L-33.9277 467.275L208.461 675.829Z" fill="#4A21EF"/>
<path d="M575.704 421.543L374.805 248.681C362.186 237.81 343.133 239.252 332.262 251.871L186.607 421.127L173.267 243.246C172.491 232.957 175.958 223.333 182.198 216.095C188.437 208.857 197.423 203.976 207.712 203.227L479.137 182.871C496.415 181.567 513.499 187.197 526.644 198.484L769.033 407.038L575.704 421.543Z" fill="#4A21EF"/>
</g>
<g opacity="0.12">
<path d="M259.489 679.157C273.19 687.421 289.635 689.917 305.166 686.062L549.302 625.576C558.537 623.274 565.997 617.45 570.545 609.907C575.093 602.336 576.785 593.045 574.483 583.81L534.853 423.817L428.329 600.505C420.37 613.679 403.342 617.977 390.141 610.046C334.425 576.461 198.809 494.703 180.311 483.554L6.45142 526.624L259.489 679.157Z" fill="#4A21EF"/>
<path d="M554.765 390.759L345.019 264.323C331.845 256.364 314.706 260.607 306.747 273.808L200.223 450.496L160.593 290.531C158.291 281.296 159.983 271.977 164.531 264.434C169.079 256.863 176.539 251.039 185.774 248.765L429.91 188.251C445.441 184.396 461.886 186.892 475.587 195.156L728.597 347.689L554.765 390.759Z" fill="#4A21EF"/>
</g>
<g opacity="0.02">
<path d="M298.205 676.134C312.016 682.069 327.63 682.235 341.58 676.661L560.811 588.968C569.103 585.64 575.288 579.289 578.56 571.663C581.833 564.036 582.193 555.189 578.865 546.869L521.402 403.183L445.08 581.231C439.395 594.515 424.086 600.699 410.802 595.014C354.67 570.969 218.028 512.397 199.392 504.41L43.2537 566.837L298.205 676.134Z" fill="#4A21EF"/>
<path d="M535.685 369.903L324.358 279.327C311.073 273.641 295.681 279.798 289.996 293.082L213.674 471.13L156.211 327.444C152.883 319.124 153.244 310.277 156.516 302.65C159.789 295.024 165.945 288.673 174.265 285.345L393.497 197.652C407.446 192.078 423.06 192.272 436.871 198.179L691.823 307.476L535.685 369.903Z" fill="#4A21EF"/>
</g>
<g opacity="0.03">
<path d="M349.678 663.709C363.129 666.455 377.134 663.737 388.588 656.166L568.493 537.218C575.316 532.725 579.642 525.875 581.168 518.443C582.693 511.038 581.362 503.023 576.869 496.228L498.911 378.334L463.551 551.695C460.916 564.618 448.381 572.994 435.43 570.359C380.767 559.21 247.731 532.087 229.566 528.371L101.438 613.068L349.678 663.709Z" fill="#4A21EF"/>
<path d="M505.511 345.942L299.731 303.954C286.807 301.319 274.161 309.667 271.526 322.59L236.166 495.979L158.236 378.085C153.743 371.262 152.412 363.275 153.937 355.87C155.463 348.466 159.789 341.615 166.611 337.095L346.517 218.147C357.971 210.576 371.948 207.858 385.426 210.604L633.667 261.245L505.511 345.942Z" fill="#4A21EF"/>
</g>
<g opacity="0.04">
<path d="M397.546 639.997C409.942 639.692 421.701 634.478 430.243 625.52L564.472 484.608C569.547 479.283 571.988 472.378 571.821 465.555C571.655 458.733 568.882 451.966 563.557 446.891L471.233 358.949L475.116 518.526C475.393 530.423 466.047 540.324 454.149 540.601C403.841 541.822 281.343 544.789 264.648 545.205L169.024 645.544L397.546 639.997Z" fill="#4A21EF"/>
<path d="M470.484 329.108L281.066 333.712C269.169 333.989 259.739 343.89 260.017 355.787L263.899 515.364L171.548 427.422C166.223 422.347 163.45 415.58 163.283 408.758C163.117 401.935 165.557 395.03 170.632 389.705L304.834 248.792C313.375 239.835 325.134 234.621 337.531 234.316L566.053 228.769L470.484 329.108Z" fill="#4A21EF"/>
</g>
<g opacity="0.05">
<path d="M453.789 603.417C464.383 599.479 473.008 591.492 477.722 581.203L551.742 419.601C554.543 413.472 554.599 406.816 552.436 400.965C550.273 395.113 545.863 390.093 539.734 387.292L433.821 338.787L484.628 475.456C488.427 485.662 483.297 496.977 473.091 500.777C429.994 516.806 325.107 555.799 310.796 561.124L258.103 676.217L453.789 603.417Z" fill="#4A21EF"/>
<path d="M424.308 313.217L262.069 373.536C251.863 377.336 246.677 388.679 250.476 398.885L301.284 535.554L195.37 487.049C189.241 484.247 184.832 479.228 182.669 473.376C180.505 467.524 180.561 460.841 183.362 454.739L257.354 293.11C262.069 282.821 270.666 274.834 281.288 270.896L477.001 198.124L424.308 313.217Z" fill="#4A21EF"/>
</g>
<g opacity="0.05">
<path d="M486.431 552.832C494.252 546.564 499.244 537.44 500.325 527.484L517.437 370.985C518.075 365.05 516.272 359.42 512.805 355.122C509.339 350.823 504.236 347.828 498.328 347.162L395.771 335.958L476.613 436.657C482.659 444.173 481.494 455.128 473.979 461.146C442.252 486.66 364.959 548.7 354.421 557.158L342.246 668.59L486.431 552.832Z" fill="#4A21EF"/>
<path d="M380.656 317.155L261.126 413.112C253.61 419.158 252.418 430.14 258.436 437.656L339.278 538.355L236.721 527.151C230.786 526.513 225.683 523.518 222.216 519.191C218.75 514.893 216.947 509.263 217.585 503.328L234.696 346.829C235.778 336.873 240.798 327.749 248.591 321.481L392.776 205.695L380.656 317.155Z" fill="#4A21EF"/>
</g>
<g opacity="0.06">
<path d="M498.994 500.333C503.764 492.928 505.373 483.914 503.487 475.317L473.979 340.09C472.869 334.959 469.763 330.772 465.687 328.165C461.61 325.53 456.507 324.476 451.376 325.585L362.769 344.916L458.337 406.234C465.465 410.81 467.572 420.267 462.996 427.394C443.666 457.512 396.603 530.839 390.169 540.851L411.191 637.141L498.994 500.333Z" fill="#4A21EF"/>
<path d="M344.908 333.462L272.108 446.891C267.532 454.018 269.612 463.503 276.74 468.079L372.281 529.397L283.673 548.727C278.543 549.837 273.467 548.783 269.363 546.148C265.286 543.513 262.18 539.353 261.071 534.223L231.59 398.996C229.704 390.398 231.341 381.385 236.083 373.98L323.886 237.144L344.908 333.462Z" fill="#4A21EF"/>
</g>
<g opacity="0.08">
<path d="M494.418 455.96C496.47 448.499 495.5 440.512 491.672 433.773L431.658 327.888C429.384 323.866 425.695 321.176 421.591 320.039C417.486 318.902 412.91 319.346 408.917 321.592L339.5 360.918L435.735 387.542C442.917 389.538 447.133 396.916 445.164 404.098C436.761 434.439 416.349 508.292 413.548 518.359L456.285 593.766L494.418 455.96Z" fill="#4A21EF"/>
<path d="M321.529 355.954L289.913 470.187C287.916 477.37 292.132 484.802 299.315 486.799L395.549 513.423L326.188 552.721C322.167 554.995 317.619 555.439 313.514 554.274C309.41 553.137 305.721 550.419 303.447 546.425L243.405 440.54C239.577 433.801 238.607 425.814 240.659 418.353L278.792 280.547L321.529 355.954Z" fill="#4A21EF"/>
</g>
<g opacity="0.1">
<path d="M479.331 418.409C479.026 411.559 476.03 405.125 470.983 400.493L391.666 327.832C388.671 325.087 384.816 323.811 381.044 323.977C377.272 324.144 373.556 325.752 370.811 328.747L323.193 380.719L411.357 376.865C417.929 376.587 423.504 381.635 423.781 388.207C425.001 415.996 427.941 483.665 428.357 492.873L484.822 544.623L479.331 418.409Z" fill="#4A21EF"/>
<path d="M306.719 381.413L311.295 486.05C311.573 492.623 317.147 497.726 323.72 497.449L411.884 493.594L364.238 545.566C361.492 548.561 357.776 550.169 354.004 550.336C350.233 550.502 346.406 549.227 343.383 546.481L264.093 473.82C259.046 469.188 256.051 462.754 255.746 455.904L250.254 329.663L306.719 381.413Z" fill="#4A21EF"/>
</g>
<g opacity="0.1">
<path d="M453.512 387.791C451.182 382.272 446.772 377.891 441.226 375.644L354.088 340.146C350.788 338.814 347.266 338.925 344.215 340.201C341.164 341.477 338.613 343.917 337.282 347.218L314.013 404.348L385.149 374.396C390.446 372.15 396.548 374.618 398.794 379.915C408.251 402.351 431.242 456.93 434.376 464.391L496.443 489.656L453.512 387.791Z" fill="#4A21EF"/>
<path d="M300.701 409.95L336.255 494.398C338.502 499.695 344.603 502.191 349.928 499.972L421.064 470.02L397.795 527.123C396.464 530.423 393.885 532.864 390.862 534.14C387.811 535.415 384.289 535.554 380.989 534.195L293.851 498.697C288.305 496.45 283.895 492.068 281.565 486.549L238.662 384.657L300.701 409.95Z" fill="#4A21EF"/>
</g>
<g opacity="0.14">
<path d="M426.499 372.372C423.06 368.35 418.152 365.882 412.882 365.494L329.988 359.226C326.854 358.976 323.914 360.058 321.695 361.944C319.477 363.857 318.007 366.603 317.757 369.737L313.653 424.066L365.375 379.61C369.23 376.282 375.026 376.698 378.354 380.581C392.36 396.888 426.472 436.574 431.131 441.982L490.147 446.447L426.499 372.372Z" fill="#4A21EF"/>
<path d="M303.974 432.359L356.723 493.732C360.051 497.587 365.847 498.031 369.73 494.703L421.452 450.246L417.348 504.576C417.098 507.71 415.628 510.455 413.409 512.369C411.191 514.282 408.251 515.336 405.117 515.087L322.223 508.819C316.953 508.431 312.044 505.935 308.606 501.913L244.958 427.866L303.974 432.359Z" fill="#4A21EF"/>
</g>
<g opacity="0.18">
<path d="M404.618 367.879C400.735 365.133 395.937 364.052 391.25 364.884L317.757 377.613C314.984 378.085 312.654 379.665 311.129 381.801C309.631 383.936 308.938 386.654 309.409 389.428L317.757 437.572L353.006 387.569C355.641 383.825 360.771 382.938 364.515 385.573C380.296 396.666 418.651 423.706 423.892 427.394L476.225 418.326L404.618 367.879Z" fill="#4A21EF"/>
<path d="M311.184 446.919L370.534 488.768C374.278 491.403 379.436 490.515 382.043 486.771L417.319 436.741L425.667 484.913C426.139 487.687 425.445 490.404 423.948 492.54C422.45 494.675 420.121 496.256 417.319 496.728L343.826 509.457C339.14 510.261 334.342 509.18 330.459 506.462L258.852 455.987L311.184 446.919Z" fill="#4A21EF"/>
</g>
<g opacity="0.22">
<path d="M389.531 368.572C385.593 366.742 381.072 366.575 376.995 368.073L312.848 391.674C310.408 392.561 308.577 394.364 307.579 396.527C306.581 398.718 306.386 401.27 307.302 403.71L322.777 445.754L346.295 394.863C348.042 391.064 352.535 389.4 356.334 391.147C372.392 398.552 411.44 416.606 416.765 419.074L462.441 402.268L389.531 368.572Z" fill="#4A21EF"/>
<path d="M318.339 455.239L378.742 483.166C382.542 484.913 387.035 483.277 388.81 479.477L412.327 428.587L427.803 470.63C428.69 473.071 428.524 475.622 427.525 477.813C426.527 480.004 424.669 481.779 422.256 482.667L358.109 506.268C354.032 507.765 349.512 507.599 345.573 505.768L272.663 472.045L318.339 455.239Z" fill="#4A21EF"/>
</g>
<g opacity="0.28">
<path d="M377.633 371.429C373.778 370.347 369.618 370.819 366.124 372.788L311.073 403.599C308.994 404.764 307.579 406.678 306.969 408.813C306.359 410.948 306.581 413.306 307.746 415.386L327.935 451.467L341.996 401.63C343.05 397.914 346.877 395.751 350.593 396.805C366.29 401.242 404.534 412.03 409.748 413.5L448.963 391.563L377.633 371.429Z" fill="#4A21EF"/>
<path d="M325.301 460.785L384.456 477.48C388.172 478.534 392.027 476.371 393.081 472.655L407.141 422.818L427.331 458.927C428.496 461.007 428.718 463.364 428.108 465.5C427.498 467.635 426.083 469.521 424.003 470.714L368.953 501.525C365.458 503.494 361.298 503.966 357.444 502.884L286.086 482.75L325.301 460.785Z" fill="#4A21EF"/>
</g>
<g opacity="0.3">
<path d="M368.564 375.173C364.848 374.646 361.104 375.617 358.109 377.891L311.157 413.306C309.382 414.637 308.3 416.579 308.023 418.631C307.745 420.683 308.217 422.819 309.576 424.621L332.788 455.405L339.5 407.621C339.999 404.043 343.272 401.575 346.849 402.074C361.908 404.182 398.599 409.34 403.591 410.034L437.038 384.824L368.564 375.173Z" fill="#4A21EF"/>
<path d="M331.513 464.307L388.227 472.267C391.805 472.766 395.077 470.27 395.577 466.72L402.288 418.936L425.501 449.72C426.832 451.495 427.331 453.658 427.054 455.71C426.776 457.762 425.695 459.704 423.92 461.035L376.968 496.422C373.972 498.669 370.201 499.639 366.512 499.14L298.094 489.545L331.513 464.307Z" fill="#4A21EF"/>
</g>
<path d="M360.466 379.721C356.972 379.721 353.616 381.108 351.148 383.576L312.321 422.402C310.851 423.872 310.103 425.814 310.103 427.727C310.103 429.668 310.851 431.582 312.321 433.052L337.78 458.511V413.472C337.78 410.117 340.47 407.399 343.854 407.399C358.053 407.399 392.637 407.399 397.351 407.399L425.001 379.749L360.466 379.721Z" fill="#4A21EF"/>
<path d="M337.753 466.942H391.222C394.578 466.942 397.296 464.224 397.296 460.868V415.802L422.755 441.261C424.225 442.731 424.974 444.672 424.974 446.586C424.974 448.527 424.225 450.441 422.755 451.91L383.928 490.737C381.46 493.205 378.104 494.592 374.61 494.592H310.103L337.753 466.942Z" fill="#4A21EF"/>
</g>
</svg>
